<svg width="24" height="22" viewBox="0 0 24 22" fill="none" xmlns="http://www.w3.org/2000/svg">
<path d="M22.5 20V8.625M22.5 8.625L18.362 9.66M22.5 8.625V3.942C22.5 3.942 21.3 2.909 19.144 1.974M1.5 20V8.625M1.5 8.625V3.942C1.5 3.942 2.7 2.91 4.856 1.974M1.5 8.625L5.638 9.66M12 0.5V4.5M12 0.5C9.061 0.5 6.634 1.203 4.856 1.974M12 0.5C14.939 0.5 17.366 1.203 19.144 1.974M12 4.5C10.4903 4.4973 9.02719 5.02262 7.864 5.985M12 4.5C13.571 4.5 15.012 5.057 16.136 5.985M4.856 1.974L7.864 5.985M19.144 1.974L16.136 5.985M0 21.5H24M5.5 20V11C5.50133 10.5393 5.54733 10.0927 5.638 9.66M5.638 9.66C5.94197 8.21809 6.72688 6.92226 7.864 5.985M18.5 20V11C18.4993 10.5393 18.4533 10.0927 18.362 9.66M18.362 9.66C18.058 8.21809 17.2731 6.92226 16.136 5.985M22.5 15.5H18.5M1.5 15.5H5.5" stroke="black"/>
</svg>
