<svg width="27" height="24" viewBox="0 0 27 24" fill="none" xmlns="http://www.w3.org/2000/svg">
<path d="M26.5989 3.49836H24.8216V2.14384C24.8216 1.92582 24.6422 1.74898 24.4208 1.74898H20.4492C20.2278 1.74898 20.0483 1.92582 20.0483 2.14384V3.49836H15.6246V2.14404C15.6246 1.92582 15.4452 1.74918 15.2238 1.74918H11.6533V0.394859C11.6533 0.176845 11.4738 0 11.2524 0H3.29301C3.07157 0 2.89194 0.176845 2.89194 0.394859V1.74918H0.40107C0.179626 1.74918 0 1.92582 0 2.14404V23.6053C0 23.8234 0.179626 24 0.40107 24H3.63249C3.85394 24 4.03397 23.8234 4.03397 23.6053V13.3731C4.03397 12.5327 4.36645 11.7423 4.9696 11.1479C5.57378 10.5537 6.37633 10.2264 7.22955 10.2264C8.99203 10.2264 10.4258 11.6381 10.4258 13.3731V23.6053C10.4258 23.8234 10.6054 24 10.8268 24H16.1728C16.3942 24 16.5742 23.8234 16.5742 23.6053V13.3731C16.5742 13.268 16.5794 13.1638 16.5897 13.0606C16.6616 12.3382 16.9821 11.6681 17.5101 11.1479C18.1141 10.5537 18.9166 10.2264 19.77 10.2264C21.5323 10.2264 22.966 11.6381 22.966 13.3731V23.6053C22.966 23.8234 23.1457 24 23.3671 24H26.5991C26.8206 24 27 23.8234 27 23.6053V10.3586C27 10.1406 26.8206 9.96375 26.5991 9.96375C26.3777 9.96375 26.1981 10.1406 26.1981 10.3586V23.2105H25.2453V13.3731C25.2453 10.4006 22.7891 7.98236 19.77 7.98236C16.751 7.98236 14.2947 10.4006 14.2947 13.3731V23.2105H12.7051V13.3731C12.7051 10.4006 10.2488 7.98236 7.22955 7.98236C4.21051 7.98236 1.75424 10.4006 1.75424 13.3731V16.6662C1.75424 16.8842 1.93387 17.0611 2.15531 17.0611C2.37675 17.0611 2.55618 16.8842 2.55618 16.6662V13.3731C2.55618 10.836 4.65278 8.77207 7.22955 8.77207C9.80653 8.77207 11.9031 10.836 11.9031 13.3731V23.2105H11.2277V13.3731C11.2277 11.2027 9.4341 9.43686 7.22955 9.43686C7.09628 9.43686 6.96382 9.44335 6.8326 9.45593C5.91511 9.54455 5.06394 9.93921 4.4025 10.5896C4.1792 10.8096 3.98639 11.0516 3.82448 11.31C3.81521 11.3244 3.80553 11.3384 3.79667 11.353C3.79296 11.3588 3.78987 11.3649 3.78637 11.3708C3.42506 11.9709 3.23183 12.6574 3.23183 13.3731V23.2105H2.55638L2.55618 16.6662C2.55618 16.4482 2.37675 17.0611 2.15531 17.0611C1.93387 17.0611 1.75424 16.4482 1.75424 16.6662V23.2105H0.801933V6.03706H13.1156V6.99673H10.9387C10.7172 6.99673 10.5378 7.17357 10.5378 7.39159C10.5378 7.6096 10.7172 7.78624 10.9387 7.78624H18.2545C18.476 7.78624 18.6554 7.6096 18.6554 7.39159C18.6554 7.17357 18.476 6.99673 18.2545 6.99673H13.9178V6.03706H16.1627C16.3841 6.03706 16.5637 5.86022 16.5637 5.6422C16.5637 5.42419 16.3841 5.24755 16.1627 5.24755H2.70016V4.28768H3.64094C3.86238 4.28768 4.04201 4.11103 4.04201 3.89302C4.04201 3.67501 3.86238 3.49816 3.64094 3.49816H0.801933V2.5387H3.29301C3.51446 2.5387 3.69388 2.36206 3.69388 2.14404V0.789718H10.8513V1.74898H5.71323C5.49179 1.74898 5.31216 1.92582 5.31216 2.14384C5.31216 2.36185 5.49179 2.5387 5.71323 2.5387H8.65647V3.89322C8.65647 4.11124 8.8361 4.28788 9.05754 4.28788C9.27898 4.28788 9.4584 4.11124 9.4584 3.89322V2.53849H11.2487L11.2524 2.5387H14.8227V3.49816H11.9839C11.7624 3.49816 11.5828 3.67501 11.5828 3.89302C11.5828 4.11103 11.7624 4.28768 11.9839 4.28768H15.22L15.2238 4.28788H26.1981V5.24755H16.1627C15.9413 5.24755 16.5637 5.42419 16.5637 5.6422C16.5637 5.86022 15.9413 6.03706 16.1627 6.03706H26.1981V10.3586C26.1981 10.5766 26.3777 9.96375 26.5991 9.96375C26.8206 9.96375 27 10.5766 27 10.3586V3.89322C27 3.67521 26.8204 3.49836 26.5989 3.49836ZM20.8503 2.53849H24.0197V3.49816H20.8503V2.53849ZM15.0967 13.3731C15.0967 10.836 17.1931 8.77207 19.77 8.77207C22.347 8.77207 24.4434 10.836 24.4434 13.3731V23.2105H23.768V13.3731C23.768 11.2027 21.9744 9.43686 19.7698 9.43686C18.7026 9.43686 17.6986 9.84612 16.9428 10.5896C16.188 11.3335 15.7723 12.322 15.7723 13.3731V23.2105H15.0967V13.3731ZM1.89803 4.28768V5.24755H0.801933V4.28768H1.89803Z" fill="currentColor"/>
</svg>
