<svg width="733" height="253" viewBox="0 0 733 253" fill="none" xmlns="http://www.w3.org/2000/svg">
<g clip-path="url(#clip0_79_186)">
<path d="M187.07 231.858H164.27V24.0605L175.67 5.06055L187.07 11.3936V231.858Z" fill="white"/>
<path d="M68.8726 177.788H151.603V168.828H68.8726C66.3986 168.828 64.3926 170.834 64.3926 173.308C64.3926 175.782 66.3986 177.788 68.8726 177.788ZM199.735 177.788H532.86V168.828H199.735V177.788ZM580.992 168.828V177.788H670.056C672.53 177.788 674.536 175.782 674.536 173.308C674.536 170.834 672.53 168.828 670.056 168.828H580.992Z" fill="white"/>
<path d="M700.258 160.547H38.6699C33.8849 160.547 30.0059 156.669 30.0059 151.884C30.0059 147.099 33.8849 143.219 38.6699 143.219H700.257C705.042 143.219 708.921 147.099 708.921 151.884C708.922 156.669 705.043 160.547 700.258 160.547Z" fill="white"/>
<path d="M4.12034 147.338C2.57634 147.338 1.09635 146.464 0.394346 144.975C-0.575654 142.919 0.305348 140.467 2.36235 139.497C2.69735 139.339 36.3114 123.411 73.9314 98.7476C123.372 66.3366 157.279 33.6305 171.987 4.16652C172.52 3.09852 173.49 2.3146 174.646 2.0176C175.805 1.7206 177.031 1.93953 178.012 2.61953C178.175 2.73153 194.739 14.0895 222.602 26.3805L222.879 26.5015C223.822 26.9125 224.775 27.3295 225.744 27.7455C237.088 32.6255 248.804 37.0105 260.569 40.7805C262.772 41.4855 264.819 42.1205 266.825 42.7195C278.313 46.1855 290.024 49.1146 301.643 51.4296C303.642 51.8296 305.69 52.2185 307.905 52.6195C319.478 54.7155 331.181 56.2385 342.689 57.1455C344.997 57.3275 347.043 57.4705 348.944 57.5835C360.537 58.2875 372.234 58.3836 383.715 57.8716C385.788 57.7836 387.887 57.6706 389.962 57.5346C401.627 56.7946 413.317 55.4096 424.717 53.4196C426.715 53.0766 428.754 52.6995 430.962 52.2645C442.64 49.9965 454.33 47.0345 465.718 43.4585C467.838 42.8015 469.935 42.1216 471.965 41.4346C483.619 37.5306 495.317 32.8636 506.745 27.5596L507.511 27.2006C508.06 26.9436 508.612 26.6856 509.163 26.4246C524.559 19.1276 539.865 10.4665 554.655 0.683493C556.55 -0.570507 559.105 -0.0503978 560.359 1.8456C561.613 3.7416 561.093 6.29556 559.197 7.55056C544.083 17.5476 528.435 26.4016 512.685 33.8666C512.119 34.1336 511.557 34.3966 510.997 34.6586L510.224 35.0205C498.506 40.4595 486.522 45.2406 474.591 49.2376C472.506 49.9426 470.341 50.6435 468.17 51.3175C456.503 54.9815 444.511 58.0195 432.542 60.3445C430.278 60.7905 428.174 61.1795 426.12 61.5325C414.437 63.5725 402.445 64.9925 390.491 65.7505C388.36 65.8905 386.198 66.0076 384.071 66.0976C372.31 66.6226 360.322 66.5225 348.448 65.8025C346.5 65.6865 344.403 65.5395 342.041 65.3535C330.258 64.4245 318.279 62.8666 306.437 60.7216C304.172 60.3116 302.076 59.9136 300.03 59.5036C288.155 57.1386 276.185 54.1445 264.455 50.6045C262.408 49.9925 260.311 49.3425 258.056 48.6205C246.039 44.7705 234.074 40.2915 222.491 35.3085C221.509 34.8865 220.54 34.4645 219.584 34.0465L219.293 33.9196C198.288 24.6536 183.752 16.0495 177.215 11.9265C160.777 41.9325 127.547 73.4556 78.3544 105.692C40.2644 130.652 6.21235 146.782 5.87335 146.943C5.30535 147.212 4.70734 147.338 4.12034 147.338Z" fill="white"/>
<path d="M728.476 147.337C727.888 147.337 727.29 147.211 726.723 146.943C726.384 146.783 692.332 130.652 654.242 105.692C602.81 71.9894 568.83 39.0684 553.243 7.84337C552.227 5.80937 553.053 3.3364 555.087 2.3214C557.123 1.3064 559.594 2.13137 560.609 4.16637C575.327 33.6494 609.265 66.3754 658.755 98.8064C696.369 123.454 729.9 139.338 730.234 139.495C732.29 140.464 733.172 142.917 732.203 144.974C731.5 146.464 730.02 147.337 728.476 147.337Z" fill="white"/>
<path d="M679.242 158.965C678.371 158.965 677.494 158.69 676.748 158.121C661.03 146.124 644.133 129.631 626.526 109.099C624.475 106.707 622.329 104.16 620.148 101.529C611.186 90.6937 602.004 78.7836 592.856 66.1256C592.258 65.2996 591.666 64.4767 591.076 63.6557L590.193 62.4276C573.667 39.2796 561.269 19.3097 556.063 10.7027C553.478 13.1887 550.872 15.6307 548.302 17.9767C537.801 27.5837 527.022 36.4297 516.266 44.2677C515.528 44.8087 514.787 45.3437 514.039 45.8777C472.085 75.9377 427.994 92.6977 382.991 95.6917C346.972 98.0867 310.354 91.7137 274.147 76.7487C223.298 55.7317 188.226 24.1777 176.715 12.9247C163.575 37.3167 141.909 65.0776 112.227 95.5416C109.91 97.9156 107.827 100.026 105.856 101.996C91.2951 116.573 75.3101 131.37 58.3481 145.973C56.6251 147.456 54.0261 147.262 52.5421 145.539C51.0581 143.816 51.2531 141.217 52.9761 139.733C69.7831 125.264 85.6151 110.609 100.033 96.1747C101.981 94.2267 104.041 92.1386 106.333 89.7926C137.497 57.8066 159.587 28.9976 171.986 4.16664C172.589 2.95864 173.746 2.12366 175.081 1.93166C176.419 1.73966 177.763 2.21368 178.682 3.20168C179.064 3.61168 217.668 44.5696 277.559 69.2506C357.482 102.187 435.433 92.0706 509.246 39.1836C509.971 38.6656 510.686 38.1486 511.408 37.6196C521.926 29.9546 532.467 21.3037 542.747 11.8987C545.752 9.1557 548.804 6.2806 551.822 3.3506C552.569 2.6296 553.301 1.90961 554.039 1.18361C554.946 0.291612 556.216 -0.132285 557.473 0.0387149C558.733 0.207715 559.845 0.949701 560.484 2.0497C560.628 2.2977 575.133 27.1667 596.881 57.6297L597.759 58.8496C598.343 59.6616 598.93 60.4777 599.525 61.2987C608.571 73.8157 617.642 85.5826 626.489 96.2766C628.638 98.8696 630.754 101.381 632.775 103.739C650.007 123.834 666.482 139.929 681.742 151.576C683.549 152.956 683.896 155.539 682.517 157.346C681.707 158.407 680.482 158.965 679.242 158.965Z" fill="white"/>
<path d="M218.695 31.0176L179.182 147.431L185.178 149.467L224.692 33.053L218.695 31.0176Z" fill="white"/>
<path d="M141.893 58.6584L135.896 60.6938L166.037 149.493L172.034 147.458L141.893 58.6584Z" fill="white"/>
<path d="M109.28 92.6685V148.514H102.947V99.0844C105.055 96.9754 107.164 94.8345 109.28 92.6685Z" fill="white"/>
<path d="M139.571 62.9517H133.238V148.516H139.571V62.9517Z" fill="white"/>
<path d="M190.068 227.015H161.268C158.593 227.015 156.424 229.184 156.424 231.859C156.424 234.534 158.593 236.703 161.268 236.703H190.068C192.743 236.703 194.912 234.535 194.912 231.859C194.912 229.183 192.743 227.015 190.068 227.015Z" fill="white"/>
<path d="M141.973 245.479V247.7C141.973 250.375 144.142 252.544 146.817 252.544H204.521C207.196 252.544 209.365 250.375 209.365 247.7V245.479C209.365 242.804 207.196 240.635 204.521 240.635H146.817C144.142 240.635 141.973 242.804 141.973 245.479Z" fill="white"/>
<path d="M545.527 231.858H568.327V24.0605L556.927 5.06055L545.527 11.3936V231.858Z" fill="white"/>
<path d="M224.118 30.1484H217.785V148.514H224.118V30.1484Z" fill="white"/>
<path d="M265.646 46.6644V148.514H259.312V44.7014C261.388 45.3664 263.505 46.0244 265.646 46.6644Z" fill="white"/>
<path d="M307.171 56.6703V148.514H300.838V55.4673C302.928 55.8853 305.037 56.2843 307.171 56.6703Z" fill="white"/>
<path d="M348.698 61.6935V148.515H342.365V61.2495C344.46 61.4145 346.569 61.5665 348.698 61.6935Z" fill="white"/>
<path d="M390.231 61.6426V148.515H383.898V61.9845C385.993 61.8955 388.109 61.7816 390.231 61.6426Z" fill="white"/>
<path d="M431.757 56.3032V148.514H425.424V57.4752C427.526 57.1142 429.635 56.7212 431.757 56.3032Z" fill="white"/>
<path d="M473.284 45.3345V148.515H466.951V47.3865C469.053 46.7345 471.168 46.0505 473.284 45.3345Z" fill="white"/>
<path d="M514.81 30.1484H508.477V148.514H514.81V30.1484Z" fill="white"/>
<path d="M513.764 31.0559L507.768 33.0913L547.281 149.505L553.278 147.47L513.764 31.0559Z" fill="white"/>
<path d="M590.57 58.719L560.43 147.518L566.426 149.554L596.567 60.7544L590.57 58.719Z" fill="white"/>
<path d="M629.649 106.417V148.513H623.316V98.8994C625.399 101.414 627.514 103.929 629.649 106.417Z" fill="white"/>
<path d="M599.356 62.9517H593.023V148.516H599.356V62.9517Z" fill="white"/>
<path d="M542.526 227.015H571.326C574.001 227.015 576.17 229.184 576.17 231.859C576.17 234.534 574.001 236.703 571.326 236.703H542.526C539.851 236.703 537.682 234.535 537.682 231.859C537.682 229.183 539.851 227.015 542.526 227.015Z" fill="white"/>
<path d="M590.62 245.479V247.7C590.62 250.375 588.451 252.544 585.776 252.544H528.073C525.398 252.544 523.229 250.375 523.229 247.7V245.479C523.229 242.804 525.398 240.635 528.073 240.635H585.776C588.452 240.635 590.62 242.804 590.62 245.479Z" fill="white"/>
</g>
<defs>
<clipPath id="clip0_79_186">
<rect width="732.597" height="252.544" fill="white"/>
</clipPath>
</defs>
</svg>
