<svg width="888" height="495" viewBox="0 0 888 495" fill="none" xmlns="http://www.w3.org/2000/svg">
<path d="M745.632 332.767L747.747 67.7479H743.518L743.671 86.9349H691.866L692.027 67.7479H687.996L690.011 308.551L691.244 161.221H744.263L745.632 332.767ZM691.289 155.94L691.822 92.2159H743.713L744.221 155.94H691.289Z" fill="white"/>
<path d="M0 308.803C0 308.803 3.349 307.738 9.63 305.741C15.922 303.78 25.151 300.893 36.967 297.462C48.774 293.998 63.1491 289.922 79.6741 285.369C87.9491 283.138 96.7551 280.764 106.038 278.262C115.339 275.828 125.13 273.306 135.371 270.78C155.83 265.622 178.079 260.381 201.639 254.948C225.228 249.648 250.125 244.116 276.014 239.045C282.483 237.763 289.007 236.471 295.578 235.169C302.161 233.929 308.791 232.68 315.461 231.424C328.789 228.835 342.343 226.57 355.985 224.168C369.64 221.844 383.43 219.656 397.268 217.422C404.2 216.382 411.145 215.341 418.097 214.298C425.049 213.259 432.003 212.182 438.98 211.267C452.933 209.425 466.864 207.424 480.796 205.843C487.756 205.009 494.702 204.176 501.627 203.346C508.553 202.518 515.479 201.866 522.366 201.121C529.256 200.4 536.118 199.682 542.947 198.968C549.788 198.378 556.594 197.792 563.359 197.209C570.126 196.646 576.844 196.001 583.527 195.517C590.213 195.055 596.85 194.597 603.432 194.142C610.017 193.718 616.537 193.168 623.011 192.858C629.484 192.538 635.896 192.22 642.239 191.906C648.583 191.628 654.853 191.236 661.057 191.061C667.26 190.884 673.389 190.708 679.435 190.535C685.48 190.367 691.443 190.202 697.316 190.039C703.192 189.999 708.979 189.96 714.67 189.921C720.36 189.893 725.954 189.865 731.444 189.838C732.817 189.833 734.183 189.828 735.543 189.823C736.902 189.847 738.255 189.871 739.602 189.895C742.295 189.943 744.961 189.991 747.599 190.037C752.875 190.131 758.042 190.223 763.092 190.313C768.141 190.439 773.075 190.402 777.879 190.69C787.488 191.132 796.603 191.551 805.169 191.945C807.31 192.043 809.417 192.14 811.488 192.235C813.559 192.341 815.591 192.521 817.589 192.657C821.583 192.947 825.434 193.228 829.134 193.497C836.532 194.035 843.327 194.529 849.464 194.976C861.716 196.151 871.323 197.256 877.879 197.928C884.432 198.624 887.927 198.996 887.927 198.996C887.927 198.996 873.908 197.98 849.375 196.201C843.234 195.91 836.435 195.588 829.034 195.237C825.334 195.062 821.483 194.879 817.489 194.69C815.492 194.605 813.46 194.477 811.39 194.423C809.32 194.38 807.214 194.336 805.074 194.292C796.517 194.115 787.411 193.926 777.811 193.728C773.014 193.578 768.087 193.682 763.048 193.654C758.008 193.656 752.851 193.658 747.585 193.66C744.952 193.661 742.292 193.662 739.605 193.663C738.262 193.664 736.912 193.664 735.555 193.665C734.199 193.695 732.835 193.725 731.466 193.755C725.989 193.882 720.409 194.011 714.733 194.143C709.058 194.264 703.287 194.387 697.427 194.512C691.57 194.752 685.624 194.995 679.596 195.241C673.569 195.493 667.459 195.747 661.274 196.006C655.09 196.261 648.839 196.735 642.515 197.095C636.193 197.475 629.801 197.858 623.348 198.246C616.894 198.605 610.392 199.206 603.829 199.681C597.267 200.187 590.651 200.697 583.987 201.21C577.325 201.745 570.627 202.443 563.883 203.057C557.14 203.692 550.356 204.331 543.538 204.973C536.729 205.704 529.885 206.439 523.014 207.176C516.146 207.937 509.24 208.606 502.332 209.45C495.425 210.296 488.498 211.145 481.556 211.996C467.662 213.606 453.768 215.65 439.851 217.51C432.887 218.404 425.946 219.46 419.006 220.48C412.067 221.502 405.134 222.523 398.215 223.542C384.401 225.735 370.634 227.883 357 230.166C329.748 234.825 302.927 239.434 277.079 244.481C251.211 249.42 226.258 254.479 202.623 259.422C179.016 264.486 156.714 269.379 136.202 274.218C115.681 279.017 96.897 283.541 80.264 287.63C63.644 291.763 49.178 295.476 37.295 298.64C25.413 301.813 16.0721 304.294 9.72705 306.069C3.38405 307.851 0 308.803 0 308.803Z" fill="white"/>
<path d="M0 331.506C0 331.506 3.34609 330.43 9.62109 328.411C15.9081 326.431 25.1241 323.504 36.9341 320.047C48.7331 316.554 63.099 312.44 79.615 307.846C87.886 305.594 96.6861 303.198 105.965 300.672C115.261 298.215 125.043 295.656 135.279 293.098C155.723 287.867 177.958 282.549 201.528 277.138C225.12 271.832 250.021 266.302 275.909 261.203C282.378 259.916 288.902 258.618 295.473 257.311C302.056 256.066 308.686 254.811 315.357 253.55C328.685 250.949 342.241 248.674 355.885 246.27C369.543 243.942 383.335 241.75 397.175 239.512C404.108 238.471 411.054 237.427 418.007 236.383C424.961 235.341 431.916 234.262 438.895 233.346C452.851 231.505 466.786 229.509 480.721 227.931C487.682 227.098 494.63 226.267 501.558 225.439C508.486 224.612 515.413 223.962 522.302 223.218C529.193 222.499 536.058 221.782 542.888 221.07C549.731 220.486 556.539 219.904 563.307 219.326C570.076 218.769 576.797 218.128 583.482 217.65C590.17 217.193 596.808 216.74 603.393 216.29C609.98 215.871 616.501 215.326 622.978 215.021C629.453 214.707 635.867 214.396 642.212 214.089C648.559 213.819 654.83 213.435 661.037 213.269C667.242 213.1 673.372 212.932 679.42 212.767C685.467 212.607 691.431 212.45 697.306 212.294C703.184 212.263 708.973 212.232 714.665 212.202C720.356 212.184 725.951 212.167 731.443 212.15C732.816 212.147 734.182 212.145 735.542 212.142C736.902 212.168 738.255 212.195 739.602 212.221C742.295 212.274 744.962 212.326 747.601 212.378C752.878 212.482 758.046 212.583 763.096 212.683C768.146 212.818 773.081 212.789 777.886 213.09C787.496 213.556 796.611 213.998 805.178 214.414C807.319 214.518 809.426 214.62 811.497 214.721C813.567 214.832 815.6 215.017 817.598 215.158C821.592 215.459 825.443 215.749 829.143 216.027C836.54 216.584 843.335 217.095 849.471 217.557C861.722 218.759 871.326 219.906 877.88 220.597C884.43 221.316 887.924 221.699 887.924 221.699C887.924 221.699 873.902 220.727 849.363 219.026C843.222 218.75 836.423 218.445 829.02 218.113C825.32 217.947 821.47 217.774 817.475 217.595C815.477 217.515 813.446 217.392 811.376 217.344C809.306 217.306 807.2 217.268 805.06 217.229C796.503 217.074 787.399 216.908 777.8 216.734C773.003 216.598 768.078 216.708 763.039 216.69C758 216.701 752.845 216.713 747.579 216.724C744.947 216.73 742.288 216.736 739.601 216.742C738.258 216.745 736.908 216.748 735.552 216.751C734.196 216.783 732.833 216.816 731.464 216.849C725.988 216.986 720.41 217.125 714.736 217.267C709.063 217.396 703.293 217.528 697.435 217.661C691.58 217.908 685.635 218.159 679.609 218.414C673.583 218.673 667.475 218.936 661.292 219.203C655.11 219.466 648.86 219.948 642.539 220.317C636.218 220.703 629.829 221.094 623.378 221.488C616.926 221.853 610.427 222.459 603.865 222.939C597.306 223.45 590.691 223.965 584.03 224.484C577.37 225.024 570.675 225.727 563.932 226.346C557.191 226.986 550.409 227.63 543.594 228.278C536.786 229.011 529.944 229.747 523.075 230.486C516.208 231.249 509.305 231.919 502.399 232.765C495.494 233.613 488.568 234.463 481.629 235.316C467.74 236.929 453.849 238.977 439.935 240.839C432.973 241.731 426.032 242.785 419.094 243.803C412.156 244.823 405.224 245.842 398.307 246.859C384.495 249.047 370.73 251.192 357.098 253.471C329.852 258.126 303.03 262.699 277.183 267.73C251.314 272.641 226.366 277.701 202.734 282.639C190.94 285.204 179.445 287.609 168.363 290.1C162.817 291.326 157.365 292.532 152.014 293.715C146.671 294.936 141.428 296.134 136.292 297.308C115.756 302.035 96.963 306.514 80.321 310.562C63.691 314.653 49.217 318.329 37.326 321.463C25.4381 324.61 16.085 327.051 9.73401 328.807C3.38701 330.566 0 331.506 0 331.506Z" fill="white"/>
<path d="M105.764 300.672L130.883 263.484L156.104 226.368L181.326 189.252L206.658 152.213L257.388 78.1809L282.753 41.1649L308.209 4.21094L311.11 0L313.073 4.77893C317.782 16.2429 323.156 27.6119 328.761 38.7679C334.395 49.9319 340.365 60.927 346.691 71.71C359.28 93.304 373.212 114.133 388.896 133.532C396.737 143.226 405.018 152.556 413.816 161.352C422.619 170.137 431.923 178.409 441.806 185.894C451.691 193.369 462.173 200.04 473.238 205.511C484.295 210.982 495.943 215.234 507.952 217.861C519.954 220.502 532.303 221.475 544.566 220.726C556.833 220.005 568.989 217.547 580.714 213.718L585.096 212.225L587.287 211.479C588.012 211.213 588.718 210.896 589.434 210.606C592.285 209.414 595.153 208.259 597.993 207.038L606.338 202.961C607.746 202.315 609.091 201.543 610.438 200.776L614.49 198.493L618.542 196.208L622.466 193.699C625.064 192 627.738 190.416 630.277 188.622L637.862 183.193L639.759 181.836C640.384 181.373 640.983 180.874 641.595 180.395L645.261 177.502C655.137 169.909 664.285 161.391 673.319 152.778L679.872 146.08L683.148 142.729C684.251 141.622 685.329 140.492 686.364 139.319L692.663 132.369C694.767 130.056 696.882 127.752 698.868 125.332L704.924 118.16L707.953 114.574C708.946 113.364 709.9 112.123 710.875 110.899L716.698 103.529C718.646 101.078 720.593 98.6249 722.429 96.0859C726.136 91.0359 729.951 86.063 733.572 80.948L744.342 65.532L745.823 63.4139L747.197 65.552C754.659 77.164 762.092 88.7959 769.481 100.456L791.695 135.407L813.908 170.358L836.016 205.377L812.998 170.95L790.085 136.454L767.172 101.958C759.519 90.47 751.91 78.9519 744.33 67.4159L747.184 67.4359L736.556 83.054C732.98 88.238 729.207 93.2859 725.541 98.4099C723.726 100.985 721.797 103.478 719.867 105.969L714.096 113.46C713.129 114.705 712.184 115.966 711.199 117.197L708.192 120.848L702.176 128.151C700.205 130.614 698.1 132.966 696.005 135.327L689.733 142.421C688.703 143.617 687.627 144.773 686.527 145.905L683.257 149.334L676.712 156.189C667.674 165.024 658.505 173.772 648.545 181.63C643.699 185.72 638.479 189.342 633.35 193.08C630.769 194.927 628.042 196.57 625.394 198.325L621.394 200.917L617.252 203.289L613.108 205.658C611.73 206.453 610.353 207.253 608.909 207.929L600.344 212.179C597.423 213.459 594.469 214.672 591.531 215.919C590.793 216.222 590.066 216.554 589.318 216.833L587.054 217.621L582.526 219.196C570.402 223.241 557.753 225.889 544.938 226.723C532.126 227.563 519.191 226.549 506.651 223.823C494.103 221.106 481.968 216.699 470.5 211.054C459.023 205.409 448.201 198.547 438.031 190.891C427.853 183.236 418.329 174.771 409.379 165.776C400.423 156.783 392.019 147.274 384.078 137.414C368.198 117.683 354.145 96.584 341.481 74.735C335.159 63.801 329.201 52.663 323.584 41.355C317.983 30.021 312.673 18.6209 307.906 6.80591L312.77 7.3739L287.044 44.1399L261.228 80.8429L209.596 154.249L183.747 190.929L157.787 227.532L131.828 264.136L105.764 300.672Z" fill="white"/>
<path d="M24.373 301.197L48.8511 263.943L73.433 226.76L98.015 189.577L122.723 152.479L172.184 78.313L196.915 41.23L221.759 4.224L224.431 0.244995L226.611 4.5769C232.16 15.6019 238.429 26.4749 244.96 37.0719C251.487 47.6989 258.455 58.052 265.659 68.226C280.167 88.499 296.035 107.818 313.555 125.489C322.316 134.318 331.493 142.726 341.125 150.561C350.746 158.404 360.811 165.694 371.356 172.19C381.897 178.687 392.914 184.397 404.353 189.057C415.787 193.718 427.646 197.318 439.753 199.621C451.858 201.92 464.197 202.952 476.513 202.618C488.829 202.285 501.112 200.617 513.124 197.733C525.119 194.758 536.811 190.598 548.14 185.593L556.566 181.666L564.804 177.339C566.168 176.601 567.567 175.926 568.903 175.136L572.909 172.76C575.565 171.15 578.288 169.65 580.89 167.95C586.06 164.499 591.344 161.21 596.307 157.445C598.813 155.6 601.368 153.819 603.836 151.921L611.15 146.105L614.809 143.197L618.352 140.146L625.43 134.031C626.625 133.028 627.771 131.971 628.903 130.898L632.323 127.704L639.164 121.314C643.556 116.877 648.005 112.493 652.35 108.007C656.583 103.413 660.896 98.889 665.067 94.236C669.157 89.509 673.305 84.83 677.349 80.062L689.248 65.552L690.436 64.1029L691.597 65.51L734.086 116.967L755.325 142.7L776.478 168.505L754.612 143.3L732.832 118.023L689.282 67.4609L691.631 67.4189L679.901 82.178C675.897 87.023 671.786 91.7809 667.732 96.5879C663.594 101.323 659.311 105.933 655.107 110.613C650.787 115.188 646.361 119.664 641.988 124.193L635.167 130.729L631.755 133.997C630.625 135.095 629.482 136.177 628.288 137.206L621.213 143.478L617.669 146.608L614.004 149.599L606.671 155.582C604.195 157.537 601.627 159.377 599.109 161.281C594.123 165.161 588.797 168.576 583.583 172.15C580.959 173.913 578.204 175.478 575.52 177.152L571.468 179.624C570.117 180.447 568.697 181.155 567.315 181.926C564.527 183.427 561.763 184.977 558.952 186.438L550.357 190.513C538.79 195.715 526.81 200.068 514.472 203.212C502.116 206.266 489.433 208.076 476.69 208.504C463.947 208.937 451.149 207.957 438.621 205.583C426.089 203.227 413.829 199.531 402.037 194.755C390.24 189.979 378.907 184.133 368.09 177.499C346.432 164.223 326.885 147.835 309.135 129.865C291.375 111.874 275.352 92.2739 260.723 71.7379C253.436 61.4469 246.508 50.906 239.965 40.13C233.415 29.337 227.207 18.427 221.555 7.01196L226.406 7.36499L201.323 44.209L176.126 80.976L125.732 154.511L100.512 191.264L75.167 227.931L49.821 264.598L24.373 301.197Z" fill="white"/>
<path d="M313.695 5.79492H307.791L308.031 41.194H226.979L227.23 5.79492H220.924L224.077 450.065L226.007 178.249H308.959L311.1 494.742L314.397 7.47498L313.695 5.79492ZM226.075 168.506L226.909 50.938H308.097L308.892 168.506H226.075Z" fill="white"/>
</svg>
